HIERARCHY
ROOT Hips
{
     OFFSET -3.33309 95.37400 35.43240
     CHANNELS 6 Xposition Yposition Zposition Zrotation Xrotation Yrotation
     JOINT Spine
     {
          OFFSET 0.00000 11.89050 0.00000
          CHANNELS 3 Zrotation Xrotation Yrotation
          JOINT Spine1
          {
               OFFSET 0.00000 25.65740 0.12766
               CHANNELS 3 Zrotation Xrotation Yrotation
               JOINT HEad
               {
                    OFFSET 0.00000 8.73416 0.01134
                    CHANNELS 3 Zrotation Xrotation Yrotation
                    End Site
                    {
                         OFFSET -0.29000 12.77420 2.51395
                    }
               }
               JOINT LeftShoulder1
               {
                    OFFSET 8.99000 -0.36225 -0.22000
                    CHANNELS 3 Zrotation Xrotation Yrotation
                    JOINT LeftArm
                    {
                         OFFSET 10.28270 -0.00338 0.32212
                         CHANNELS 3 Zrotation Xrotation Yrotation
                         JOINT LeftForeArm
                         {
                              OFFSET 32.76690 0.09914 -1.42434
                              CHANNELS 3 Zrotation Xrotation Yrotation
                              JOINT LeftHand
                              {
                                   OFFSET 27.56430 0.08536 1.02216
                                   CHANNELS 3 Zrotation Xrotation Yrotation
                                   End Site
                                   {
                                        OFFSET 16.74430 -0.60000 1.50291
                                   }
                              }
                         }
                    }
               }
               JOINT RightShoulder
               {
                    OFFSET -8.99000 -0.36225 -0.22000
                    CHANNELS 3 Zrotation Xrotation Yrotation
                    JOINT RightArm
                    {
                         OFFSET -10.28270 -0.00338 0.32212
                         CHANNELS 3 Zrotation Xrotation Yrotation
                         JOINT RightForeArm
                         {
                              OFFSET -32.89710 0.09914 -1.42434
                              CHANNELS 3 Zrotation Xrotation Yrotation
                              JOINT RightHand
                              {
                                   OFFSET -27.49210 0.08536 1.02216
                                   CHANNELS 3 Zrotation Xrotation Yrotation
                                   End Site
                                   {
                                        OFFSET -16.63120 -0.60000 1.50291
                                   }
                              }
                         }
                    }
               }
          }
     }
     JOINT LeftUpLeg
     {
          OFFSET 8.94580 -8.66707 0.10165
          CHANNELS 3 Zrotation Xrotation Yrotation
          JOINT LeftLeg
          {
               OFFSET 0.00000 -44.42270 1.37270
               CHANNELS 3 Zrotation Xrotation Yrotation
               JOINT LeftFoot
               {
                    OFFSET -0.25355 -42.09240 -1.46059
                    CHANNELS 3 Zrotation Xrotation Yrotation
                    JOINT LeftToes
                    {
                         OFFSET -0.04000 -4.41509 8.49910
                         CHANNELS 3 Zrotation Xrotation Yrotation
                         End Site
                         {
                              OFFSET 0.08000 -0.04745 9.77979
                         }
                    }
               }
          }
     }
     JOINT RightUpLeg
     {
          OFFSET -8.94580 -8.66707 0.10165
          CHANNELS 3 Zrotation Xrotation Yrotation
          JOINT RightLeg
          {
               OFFSET 0.00000 -44.42270 1.37270
               CHANNELS 3 Zrotation Xrotation Yrotation
               JOINT RightFoot
               {
                    OFFSET 0.25355 -42.09240 -1.46059
                    CHANNELS 3 Zrotation Xrotation Yrotation
                    JOINT RightToes
                    {
                         OFFSET 0.04000 -4.41509 8.49910
                         CHANNELS 3 Zrotation Xrotation Yrotation
                         End Site
                         {
                              OFFSET -0.08000 -0.13745 9.77979
                         }
                    }
               }
          }
     }
}
MOTION
Frames: 7
Frame Time: 0.01667
-6.06886 95.72670 -40.00230 -1.38499 -15.51550 7.35467 6.59853 10.06680 0.54339 3.69714 20.92780 2.55076 -10.36710 17.30400 1.82987 0.00000 0.00000 0.00000 -95.81100 -39.45270 -58.47180 -4.34521 43.07980 -101.16000 26.60510 8.12078 -3.49914 11.42280 1.04838 4.50699 71.13980 -13.21810 70.09570 3.40136 30.04890 83.59920 -7.43240 9.01322 10.94760 22.24440 -11.88510 0.36654 -7.73694 30.51660 12.96870 -8.59899 1.82607 0.68612 -6.03333 -12.28460 6.30026 -8.38974 4.31815 -1.79243 3.62056 36.59160 -2.63669 11.64580 -23.70240 1.41199 -0.31185 3.39434 -11.50110 
-6.14328 96.09040 -39.93940 -1.49623 -14.99550 6.88203 6.46354 9.94716 0.66303 3.40400 20.69210 2.73001 -10.55320 17.10370 2.36294 0.00000 0.00000 0.00000 -95.72100 -39.55330 -58.75230 -3.77527 42.96900 -102.15800 26.88320 8.17569 -3.17573 11.26730 1.05340 4.60305 71.02280 -13.14020 70.14750 3.49042 30.14790 83.77020 -7.56368 8.98845 11.06960 22.11830 -11.89420 0.46975 -7.61565 29.12990 11.75110 -9.26513 0.74180 0.66075 -5.50226 -11.36030 6.22754 -8.37788 3.94899 -1.80078 3.50340 35.97880 -2.25162 12.26880 -23.37880 1.46827 0.19727 5.08830 -11.80210 
-6.14522 96.41550 -39.87460 -1.66169 -14.47210 6.33437 6.35448 9.82363 0.78320 3.07345 20.45590 2.92954 -10.75480 16.84050 2.98779 0.00000 0.00000 0.00000 -95.53980 -39.72270 -58.99370 -3.35120 42.85720 -102.93300 27.08770 8.20761 -2.97865 11.10530 1.06540 4.75291 70.88760 -12.92420 70.25500 3.55125 30.15600 83.87960 -7.62020 8.97002 11.24890 21.94290 -11.75190 0.51351 -7.31642 27.45230 10.18470 -10.10350 -0.28594 0.63844 -5.44176 -10.93470 5.67452 -8.36077 3.56572 -1.84651 3.34336 35.37790 -1.80892 12.94250 -23.20920 1.54558 0.81168 7.05858 -12.02370 
-6.07907 96.67770 -39.80500 -1.89662 -13.95870 5.74005 6.28034 9.69964 0.90060 2.73232 20.22540 3.13947 -10.95360 16.53320 3.61167 0.00000 0.00000 0.00000 -95.33820 -39.94050 -59.22510 -3.06761 42.76930 -103.46800 27.20800 8.22114 -2.88654 10.94120 1.08299 4.94647 70.76270 -12.61860 70.37870 3.59640 30.09320 83.91970 -7.60640 8.95823 11.47470 21.75180 -11.50640 0.48699 -6.85430 25.62140 8.52369 -11.06080 -0.99849 0.63617 -5.49076 -10.54960 4.87144 -8.32123 3.15590 -1.92763 3.18490 34.85080 -1.34485 13.61560 -23.18760 1.63857 1.48924 9.17954 -12.18590 
-5.95336 96.86530 -39.72760 -2.20310 -13.45660 5.11481 6.22165 9.57967 1.02547 2.40446 20.00340 3.36844 -11.13580 16.20190 4.14560 0.00000 0.00000 0.00000 -95.20670 -40.15970 -59.49550 -2.88514 42.72910 -103.77500 27.26780 8.22777 -2.84150 10.78200 1.10348 5.16278 70.64740 -12.30030 70.47510 3.63543 29.98790 83.89670 -7.52052 8.95470 11.73150 21.57850 -11.20580 0.39750 -6.28871 23.77710 7.08407 -11.98820 -1.24377 0.66648 -5.26467 -9.70372 4.01050 -8.25872 2.70517 -2.02276 3.07824 34.43130 -0.89788 14.24840 -23.26850 1.73861 2.16721 11.26420 -12.28920 
-5.78167 96.97750 -39.64210 -2.56625 -12.95960 4.46328 6.13409 9.47018 1.17382 2.10722 19.79220 3.63204 -11.28500 15.86050 4.53627 0.00000 0.00000 0.00000 -95.23690 -40.32300 -59.86270 -2.76322 42.74810 -103.88200 27.30440 8.23879 -2.78437 10.63660 1.12425 5.37908 70.51360 -12.04630 70.51220 3.67169 29.85670 83.81590 -7.34346 8.96356 12.00450 21.44800 -10.89410 0.28125 -5.70267 22.04770 6.13880 -12.67090 -1.01498 0.72910 -4.55441 -8.15019 3.18920 -8.19074 2.19996 -2.10464 3.06298 34.13170 -0.49630 14.83700 -23.39700 1.83967 2.77759 13.11810 -12.30860 
-5.58158 97.01860 -39.55260 -2.95578 -12.46240 3.78791 5.96594 9.37932 1.35736 1.84785 19.59770 3.93955 -11.38020 15.50800 4.78324 0.00000 0.00000 0.00000 -95.50460 -40.38070 -60.38220 -2.67348 42.81740 -103.81400 27.34360 8.26070 -2.68035 10.51550 1.14360 5.57737 70.32390 -11.90600 70.48060 3.70342 29.68850 83.66560 -7.04121 8.99095 12.28460 21.36730 -10.61180 0.21376 -5.16597 20.54250 5.81891 -12.90360 -0.42153 0.80602 -3.44772 -6.06412 2.41240 -8.14969 1.62945 -2.15586 3.15833 33.96030 -0.15727 15.42550 -23.54040 1.94430 3.26136 14.58320 -12.21740 
